<?xml version="1.0" encoding="utf-8"?>
<!-- Generator: Adobe Illustrator 28.3.0, SVG Export Plug-In . SVG Version: 6.00 Build 0)  -->
<svg version="1.1" id="Ebene_1" xmlns="http://www.w3.org/2000/svg" xmlns:xlink="http://www.w3.org/1999/xlink" x="0px" y="0px"
	 viewBox="0 0 825 230" style="enable-background:new 0 0 825 230;" xml:space="preserve">
<style type="text/css">
	.st0{fill:#FFFFFF;}
</style>
<g>
	<path class="st0" d="M199.9,109.1c0-2.6-0.3-5.1-1-7.6c-0.6-2.3-1.7-4.4-3.1-6.3c-1.4-1.8-3.2-3.3-5.2-4.3c-2.4-1.2-5-1.7-7.6-1.6
		c-5-0.3-9.8,1.6-13.3,5.3c-3.3,4.2-5.3,9.3-5.6,14.6H199.9L199.9,109.1z M163.9,119.6c0.2,7.9,2.3,13.8,6.2,17.4
		c3.9,3.7,9.7,5.5,17.3,5.5c6.6,0,13.1-1.2,19.2-3.5c0.8,1.6,1.4,3.4,1.8,5.2c0.5,2,0.7,4,0.8,6c-3.3,1.3-6.7,2.3-10.3,2.9
		c-4.1,0.7-8.3,1-12.4,1c-5.8,0.1-11.6-0.9-17-2.9c-8.9-3.3-15.8-10.6-18.5-19.7c-1.5-4.9-2.2-10-2.1-15.1c0-5.1,0.7-10.2,2.1-15.1
		c1.2-4.5,3.4-8.6,6.3-12.2c2.9-3.5,6.6-6.3,10.7-8.2c4.8-2.1,10-3.2,15.3-3.1c4.5-0.1,9,0.8,13.2,2.6c3.7,1.6,6.9,4,9.5,7
		c2.6,3.1,4.6,6.7,5.8,10.6c1.4,4.3,2,8.9,2,13.4v4.2c0,1.3-0.2,2.7-0.3,3.8L163.9,119.6L163.9,119.6z"/>
	<path class="st0" d="M287.9,139.8c0.9,1.6,1.5,3.2,2,5c0.6,2,0.9,4,1,6.1c-6.1,2.3-12.6,3.4-19.2,3.3c-12.1,0-21.2-3.4-27.4-10.3
		c-6.2-6.9-9.2-16.1-9.2-27.7c0-5.1,0.7-10.2,2.3-15.1c1.4-4.4,3.7-8.5,6.7-12.1c3.1-3.5,6.9-6.2,11.1-8.1c4.9-2,10.2-3,15.5-2.9
		c3.5,0,7,0.2,10.5,0.7c3,0.5,5.9,1.2,8.7,2.3c0,1.9-0.2,3.8-0.6,5.6c-0.4,1.9-1,3.8-1.8,5.6c-5.1-1.7-10.5-2.5-15.9-2.4
		c-6.3-0.5-12.4,2.3-16.3,7.2c-3.8,5.6-5.7,12.3-5.4,19.2c0,9.1,2,15.7,6.1,19.9c4.4,4.4,10.5,6.7,16.7,6.3c2.6,0,5.3-0.2,7.9-0.6
		C283.1,141.5,285.6,140.8,287.9,139.8"/>
	<path class="st0" d="M313.3,79.7c1-0.2,2.2-0.3,3.5-0.4c1.3-0.1,2.5-0.1,3.4-0.1c1,0,2.2,0,3.5,0.1c1.3,0.1,2.5,0.2,3.5,0.4v39.9
		c-0.1,3.8,0.3,7.6,1.3,11.3c0.7,2.6,2,5,3.8,7c1.7,1.7,3.9,2.9,6.2,3.5c2.8,0.7,5.7,1.1,8.7,1c4.2,0.1,8.3-0.4,12.3-1.6V79.7
		c1.1-0.2,2.2-0.3,3.5-0.4c1.3-0.1,2.4-0.1,3.5-0.1c1.1,0,2.2,0,3.5,0.1c1.3,0.1,2.5,0.2,3.5,0.4v70.5c-3.3,1-7.3,1.8-11.9,2.7
		c-4.7,0.9-9.5,1.3-14.2,1.3c-4.4,0-8.8-0.4-13.1-1.2c-4-0.7-7.7-2.4-10.9-4.9c-3.3-2.8-5.9-6.3-7.4-10.4c-2-5.6-2.9-11.6-2.7-17.6
		L313.3,79.7L313.3,79.7z"/>
	<path class="st0" d="M402.7,79.7c1-0.2,2-0.3,2.9-0.4c0.8-0.1,1.9-0.1,2.9-0.1s2.1,0,3.1,0.1c1,0.1,1.9,0.2,2.9,0.4
		c0.3,1.4,0.6,3.3,0.9,5.8c0.2,1.9,0.4,3.8,0.4,5.8c2-3.3,4.7-6.1,7.9-8.4c3.7-2.5,8.1-3.7,12.6-3.5h2.3c0.7,0,1.4,0.1,2,0.2
		c0.2,0.9,0.4,1.8,0.4,2.7c0,1,0.1,1.9,0.1,2.9c0,1.2-0.1,2.4-0.2,3.5c-0.2,1.3-0.3,2.4-0.5,3.5c-0.8-0.2-1.5-0.3-2.3-0.3h-1.9
		c-2.5,0-5,0.4-7.3,1.1c-2.3,0.7-4.5,2-6.2,3.8c-2,2.1-3.5,4.6-4.4,7.4c-1.2,3.9-1.8,8-1.6,12.1v36.3c-1.1,0.2-2.3,0.4-3.5,0.4
		c-1.3,0-2.4,0.1-3.5,0.1c-1,0-2.2,0-3.5-0.1c-1.2-0.1-2.4-0.2-3.6-0.4L402.7,79.7L402.7,79.7z"/>
	<path class="st0" d="M490,143c5.7,0.4,11.2-2.3,14.4-7.1c6.2-12.4,6.2-27,0-39.4c-3.2-4.7-8.7-7.4-14.4-7c-5.7-0.4-11.2,2.3-14.4,7
		c-6.2,12.4-6.2,27,0,39.4C478.7,140.7,484.2,143.4,490,143L490,143z M490,154.2c-5.1,0.1-10.2-0.9-14.9-2.9
		c-4.1-1.8-7.8-4.6-10.6-8c-2.9-3.6-5.1-7.7-6.3-12.2c-2.8-9.8-2.8-20.2,0-30.1c1.3-4.4,3.4-8.5,6.3-12.1c2.9-3.5,6.5-6.2,10.6-8.1
		c9.5-4,20.3-4,29.8,0c4.1,1.9,7.7,4.6,10.6,8.1c2.9,3.5,5,7.7,6.3,12.1c2.7,9.8,2.7,20.2,0,30.1c-1.3,4.4-3.4,8.5-6.3,12.1
		c-2.9,3.4-6.5,6.2-10.6,8C500.1,153.3,495.1,154.3,490,154.2"/>
	<path class="st0" d="M548.1,139.3c2.7,1.1,5.6,1.9,8.5,2.5c3,0.6,6.1,0.9,9.1,0.9c2.1,0,4.2-0.2,6.3-0.7c1.8-0.4,3.6-1.1,5.2-2.1
		c1.4-0.9,2.6-2.1,3.5-3.5c0.9-1.4,1.4-3,1.4-4.6c0.1-1.6-0.3-3.2-1.1-4.7c-0.7-1.2-1.7-2.3-2.9-3.1c-1.3-0.9-2.7-1.6-4.1-2.2
		c-1.6-0.6-3.2-1.2-5-1.8l-5-1.8c-4.9-1.6-9.4-4.2-13.2-7.7c-2.9-3.1-4.3-7.3-4.1-11.5c-0.2-5.9,2.3-11.6,6.9-15.3
		c4.6-3.8,11.3-5.8,20.2-5.8c3.6,0,7.3,0.4,10.8,1.1c3.1,0.6,6.3,1.4,9.3,2.5c-0.2,2-0.5,3.9-1.1,5.8c-0.5,1.8-1.1,3.6-1.9,5.2
		c-2.1-0.7-4.6-1.5-7.4-2.2c-3.1-0.7-6.2-1.1-9.3-1.1c-3.2-0.1-6.4,0.6-9.3,1.8c-2.6,1.1-4.2,3.7-4,6.5c0,1.4,0.3,2.9,1,4.1
		c0.7,1.1,1.6,2.1,2.7,2.9c1.2,0.8,2.5,1.5,3.9,2c1.5,0.6,3.1,1.1,4.8,1.7l6.2,2.1c2.2,0.7,4.4,1.6,6.5,2.7c2,1,3.7,2.3,5.3,3.9
		c1.5,1.7,2.8,3.6,3.5,5.8c2,5.7,1.8,12-0.8,17.6c-1.4,2.9-3.5,5.4-6,7.4c-2.8,2.2-6,3.8-9.4,4.8c-4,1.2-8.1,1.7-12.2,1.7
		c-4,0-8-0.3-11.9-0.9c-3.2-0.6-6.4-1.4-9.5-2.5c0.2-2,0.6-3.9,1.2-5.8C546.7,143.1,547.5,141.2,548.1,139.3"/>
	<path class="st0" d="M645.9,152.6h-7.6c-1,0-1.9-0.1-2.6-0.2l-24.1-72.8c1.2-0.2,2.5-0.3,3.8-0.3h7.8c1.3,0,2.6,0.2,3.8,0.3
		l20.2,67.7l20.9-67.7c2.3-0.3,4.6-0.4,7-0.4h3.5c1.3,0,2.7,0.1,4,0.3l-28.4,87.7c-1.1,3.4-2.5,6.6-4.1,9.8
		c-1.2,2.4-2.9,4.6-4.8,6.4c-1.7,1.6-3.8,2.7-6,3.4c-2.5,0.7-5.1,1-7.8,1c-2.2,0-4.3-0.2-6.4-0.5c-1.9-0.3-3.8-0.7-5.6-1.2
		c-0.1-3.8,0.7-7.5,2.2-10.9c1.1,0.4,2.3,0.7,3.5,0.9c1.6,0.3,3.1,0.5,4.7,0.5c1.2,0,2.3-0.1,3.5-0.3c1.1-0.2,2.2-0.7,3.1-1.4
		c1.1-0.9,1.9-1.9,2.6-3.1c1-1.7,1.7-3.5,2.3-5.4L645.9,152.6L645.9,152.6z"/>
	<path class="st0" d="M97.2,91.1c2.9-1.3,6.1-1.9,9.3-1.8c3.1,0,6.2,0.3,9.3,1.1c2.9,0.7,5.4,1.4,7.4,2.2c0.8-1.7,1.4-3.5,1.9-5.3
		c0.5-1.9,0.9-3.8,1-5.8c-3-1-6.1-1.9-9.3-2.5c-3.6-0.7-7.2-1.1-10.8-1.1c-1.8,0-3.4,0.1-5,0.3l-4.2,13
		C96.9,91.1,97.2,91.1,97.2,91.1z"/>
	<path class="st0" d="M127,122.8c-0.8-2.1-2-4.1-3.6-5.8c-1.5-1.6-3.3-2.9-5.2-3.9c-2.1-1.1-4.2-1.9-6.5-2.7l-6.3-2.1
		c-1.7-0.6-3.3-1.1-4.8-1.7c-1.4-0.5-2.7-1.2-3.9-2c-1.1-0.8-2-1.7-2.7-2.9c-0.1-0.2-0.2-0.5-0.3-0.8l-4.5,14.1
		c2.2,1.2,4.5,2.3,6.9,3.2l5,1.8c1.8,0.5,3.5,1.2,5,1.8c1.4,0.6,2.8,1.3,4.1,2.2c1.2,0.8,2.2,1.9,2.9,3.1c0.8,1.4,1.1,3,1.1,4.7
		c0,1.6-0.4,3.2-1.3,4.6c-0.9,1.4-2.2,2.6-3.6,3.5c-1.6,1-3.3,1.7-5.2,2.1c-2,0.5-4.1,0.7-6.2,0.7c-5.7,0.1-11.3-0.9-16.6-2.9
		l-3.6,11.3c2.9,1,5.8,1.8,8.8,2.3c3.9,0.7,7.9,1,11.9,0.9c4.1,0,8.2-0.5,12.2-1.7c3.4-1,6.6-2.6,9.4-4.8c2.6-2,4.6-4.5,6-7.4
		c1.5-3,2.2-6.3,2.1-9.6C128.4,128.1,127.9,125.4,127,122.8"/>
	<path class="st0" d="M733.3,110.5l-6.3-2.1c-1.7-0.6-3.3-1.1-4.8-1.7c-1.4-0.5-2.7-1.2-3.9-2c-1.1-0.8-2-1.7-2.7-2.9
		c-0.7-1.3-1-2.7-1-4.1c-0.2-2.8,1.5-5.4,4.1-6.5c2.9-1.3,6.1-1.9,9.3-1.8c3.1,0,6.2,0.3,9.3,1.1c2.3,0.6,4.3,1.2,6.1,1.7l3.4-10.8
		c-2.7-0.9-5.5-1.6-8.4-2.2c-3.6-0.7-7.2-1.1-10.8-1.1c-8.9,0-15.6,1.9-20.2,5.8c-4.6,3.7-7.1,9.4-6.9,15.3
		c-0.2,4.2,1.3,8.4,4.1,11.5c3.8,3.5,8.3,6.1,13.2,7.7l5,1.8c1.8,0.6,3.5,1.2,5,1.8c1.4,0.6,2.8,1.3,4.1,2.2c0.4,0.3,0.6,0.7,0.9,1
		l4.1-12.9C735.8,111.6,734.6,111,733.3,110.5"/>
	<path class="st0" d="M725.8,142c-2,0.5-4.1,0.7-6.2,0.7c-3.1,0-6.2-0.3-9.2-0.9c-2.9-0.6-5.7-1.4-8.4-2.5c-0.8,1.9-1.4,3.8-2.1,5.8
		c-0.6,1.9-1,3.8-1.2,5.8c3.1,1.1,6.3,1.9,9.5,2.5c3.9,0.7,7.9,1,11.9,0.9c1.2,0,2.3-0.1,3.5-0.2l4-12.5
		C727,141.7,726.4,141.9,725.8,142"/>
</g>
</svg>
