<svg width="1995" height="370" viewBox="0 0 1995 370" fill="none" xmlns="http://www.w3.org/2000/svg">
<path d="M366.47 313.09L374.31 271.39C402.82 281.72 434.89 286.71 475.17 286.71C524.71 286.71 541.1 278.87 544.67 253.21C545.03 250.72 545.03 248.93 545.03 247.15C545.03 233.25 535.76 228.62 503.69 225.77L465.2 222.56C411.03 217.93 392.14 202.6 392.14 169.81C392.14 164.46 392.5 157.34 393.57 151.99C402.84 97.46 431.35 80 511.89 80C548.24 80 576.04 83.92 603.48 92.12L596 133.82C567.49 124.91 540.05 120.63 504.77 120.63C456.66 120.63 444.18 128.83 440.26 152.35C439.9 154.49 439.55 156.63 439.55 158.41C439.55 170.17 447.03 175.52 481.96 178.37L519.74 181.58C571.77 185.86 592.44 201.54 592.44 236.46C592.44 242.52 591.73 250 591.02 254.64C582.47 310.95 551.46 327.34 470.21 327.34C426.7 327.34 393.91 322.35 366.47 313.09Z" fill="#45A046"/>
<path d="M625.92 263.19C625.92 254.64 626.99 245.37 628.77 234.68C639.1 167.68 669.04 147.01 731.41 147.01C788.43 147.01 815.16 164.47 815.16 205.81C815.16 219.71 811.95 239.67 808.39 252.14H671.18V255.7C671.18 283.5 684.37 290.98 723.57 290.98C749.59 290.98 767.76 287.42 790.57 278.86L790.21 316.99C764.19 324.83 744.95 327.32 719.65 327.32C653.36 327.34 625.92 309.88 625.92 263.19ZM770.97 220.07C771.33 217.57 771.33 215.44 771.33 213.3C771.33 189.42 760.28 182.65 732.13 182.65C697.92 182.65 684.02 192.27 676.53 220.07H770.97Z" fill="#45A046"/>
<path d="M840.82 262.12C840.82 253.57 841.53 244.66 843.31 234.32C853.64 170.53 882.51 147.01 947.02 147.01C970.19 147.01 985.87 149.86 1005.11 155.56L998.34 192.98C981.95 188.35 966.62 185.85 949.16 185.85C908.89 185.85 893.56 198.68 887.5 237.88C886.43 244.65 886.08 250.71 886.08 255.7C886.08 280.29 898.55 288.49 930.98 288.49C949.51 288.49 965.55 285.64 981.94 280.65L981.23 319.5C960.56 325.2 943.81 327.34 923.5 327.34C866.48 327.34 840.82 308.1 840.82 262.12Z" fill="#45A046"/>
<path d="M1019.72 279.59C1019.72 274.96 1020.08 269.61 1021.15 262.84L1038.97 151.29H1083.16L1066.77 253.57C1066.06 257.85 1066.06 261.41 1066.06 263.55C1066.06 280.66 1073.19 287.43 1094.57 287.43C1113.1 287.43 1127.71 282.44 1146.6 271.39L1165.49 151.29H1209.68L1182.6 323.07H1149.46L1148.03 307.75C1119.88 322.72 1100.63 327.35 1078.18 327.35C1037.54 327.34 1019.72 311.66 1019.72 279.59Z" fill="#45A046"/>
<path d="M1258.13 151.29H1291.27L1292.69 166.97C1320.49 152 1339.38 147.01 1360.4 147.01H1371.09L1364.67 186.93H1356.83C1332.95 186.93 1314.78 191.56 1294.11 201.9L1275.22 323.07H1231.03L1258.13 151.29Z" fill="#45A046"/>
<path d="M1372.18 265.69C1372.18 256.07 1373.25 245.73 1375.03 234.33C1385.01 171.25 1409.6 147.02 1461.99 147.02C1486.22 147.02 1504.4 152.37 1524.36 164.13L1538.97 71.47H1583.16L1543.24 323.08H1510.1L1508.68 308.47C1483.02 322.37 1462.35 327.36 1438.47 327.36C1392.85 327.34 1372.18 308.81 1372.18 265.69ZM1507.25 272.46L1518.65 199.4C1501.9 189.42 1488.36 185.5 1470.89 185.5C1438.82 185.5 1425.63 198.33 1419.21 237.89C1417.79 245.73 1417.43 252.14 1417.43 257.85C1417.43 280.66 1427.76 288.86 1452.71 288.86C1472.32 288.85 1487.29 283.86 1507.25 272.46Z" fill="#4D4C4D"/>
<path d="M1594.56 263.19C1594.56 254.64 1595.63 245.37 1597.41 234.68C1607.74 167.68 1637.68 147.01 1700.05 147.01C1757.07 147.01 1783.8 164.47 1783.8 205.81C1783.8 219.71 1780.59 239.67 1777.03 252.14H1639.82V255.7C1639.82 283.5 1653.01 290.98 1692.21 290.98C1718.23 290.98 1736.4 287.42 1759.21 278.86L1758.85 316.99C1732.83 324.83 1713.59 327.32 1688.29 327.32C1622 327.34 1594.56 309.88 1594.56 263.19ZM1739.61 220.07C1739.97 217.57 1739.97 215.44 1739.97 213.3C1739.97 189.42 1728.92 182.65 1700.77 182.65C1666.56 182.65 1652.66 192.27 1645.17 220.07H1739.61Z" fill="#4D4C4D"/>
<path d="M1831.91 151.29H1865.05L1866.47 166.61C1894.62 151.64 1913.87 147.01 1935.97 147.01C1976.24 147.01 1994.06 162.69 1994.06 194.76C1994.06 199.39 1993.7 204.74 1992.63 211.51L1975.17 323.06H1930.98L1947.02 220.78C1947.73 216.5 1948.09 212.94 1948.09 210.45C1948.09 193.7 1940.61 186.93 1919.58 186.93C1901.76 186.93 1887.15 191.92 1867.9 203.32L1849.01 323.07H1804.82L1831.91 151.29Z" fill="#4D4C4D"/>
<path d="M289.84 95.31V98.5C289.92 120.85 287.98 142.97 284.71 164.96C282.21 181.78 278.77 198.33 274.24 214.53C270.45 228.03 265.94 241.2 260.35 253.79C253.3 269.69 245.04 284.61 235.17 298.29C221.68 316.97 205.94 332.33 188.4 345.22C177.3 353.38 165.72 360.49 153.83 366.82C147.36 370.27 140.63 369.69 134.22 366.02C119.8 357.75 105.55 349.08 92.3197 338.24C84.4697 331.8 77.0597 324.7 69.9897 317.06C57.8197 303.91 47.4797 288.97 38.6197 272.55C29.9997 256.57 23.2097 239.51 17.7397 221.67C12.3497 204.09 8.44965 186.04 5.54965 167.68C4.18965 159.11 3.15965 150.48 2.26965 141.82C2.80965 141.78 3.34965 141.71 3.88965 141.6L8.92965 146.23L113.26 266.8L278.74 97.56L288.72 89.1H289.84V90.6C289.86 91.39 289.78 92.2 289.98 92.98C289.99 93.76 289.77 94.52 289.84 95.31Z" fill="#3B3B3B"/>
<path d="M308.37 42.9H270.66V80.61H308.37V42.9Z" fill="#45A046"/>
<path d="M351.26 38.18H322.98V66.46H351.26V38.18Z" fill="#45A046"/>
<path d="M322.51 0H289.51V33H322.51V0Z" fill="#45A046"/>
<path d="M284.43 91.73L287.54 89.1H287.01L284.43 91.73Z" fill="#45A046"/>
<path d="M262.6 89.1V50.45C245.31 43.98 228.02 37.55 210.73 31.07C192.57 24.26 174.37 17.56 156.24 10.64C148.47 7.67001 140.79 7.75001 133.05 10.82C124.51 14.21 115.9 17.35 107.31 20.52C87.3497 27.89 67.4297 35.44 47.4697 42.82C36.3197 46.95 25.2097 51.22 14.0297 55.27C10.8797 56.41 7.84966 57.78 5.24966 60.32C2.19966 63.3 0.709663 67.12 0.179663 71.51V71.52C0.109663 72.1 0.0596634 72.7 0.0196634 73.3V74.37C0.0596634 74.55 0.0896634 74.73 0.119663 74.91C0.0496634 79.34 -0.0403366 87.64 0.0196634 97.13V98.93C0.0296634 98.94 0.0296634 98.95 0.0296634 98.96C0.149663 111.6 0.559663 126 1.68966 136.08C1.77966 137 1.86966 137.91 1.95966 138.83L2.02966 138.9C2.19966 138.91 2.33966 138.97 2.45966 139.05C2.49966 139.06 2.51966 139.09 2.55966 139.11C2.61966 139.13 2.66966 139.17 2.71966 139.2C2.80966 139.23 2.88966 139.28 2.95966 139.34L2.87966 139.24L116.57 210.63L286.96 89.1H262.6Z" fill="#45A046"/>
</svg>
